HIERARCHY
ROOT Hips
{
	OFFSET	0.00	0.00	0.00
	CHANNELS 6 Xposition Yposition Zposition Zrotation Xrotation Yrotation
	JOINT LeftUpLeg
	{
		OFFSET	 0.126116	-0.014019	-0.065224
		CHANNELS 3 Zrotation Xrotation Yrotation
		JOINT LeftLeg
		{
			OFFSET	 0.000000	 0.000000	 0.569914
			CHANNELS 3 Zrotation Xrotation Yrotation
			JOINT LeftFoot
			{
				OFFSET	 0.000000	 0.000000	 0.544423
				CHANNELS 3 Zrotation Xrotation Yrotation
				JOINT LeftToeBase
				{
					OFFSET	 0.000000	 0.000000	 0.207117
					CHANNELS 3 Zrotation Xrotation Yrotation
					End Site
					{
						OFFSET	 0.000000	 0.000000	 0.207117
					}
				}
			}
		}
	}
	JOINT RightUpLeg
	{
		OFFSET	-0.124023	-0.008373	-0.065224
		CHANNELS 3 Zrotation Xrotation Yrotation
		JOINT RightLeg
		{
			OFFSET	 0.000000	 0.000000	 0.570047
			CHANNELS 3 Zrotation Xrotation Yrotation
			JOINT RightFoot
			{
				OFFSET	 0.000000	 0.000000	 0.544354
				CHANNELS 3 Zrotation Xrotation Yrotation
				JOINT RightToeBase
				{
					OFFSET	 0.000000	 0.000000	 0.207540
					CHANNELS 3 Zrotation Xrotation Yrotation
					End Site
					{
						OFFSET	 0.000000	 0.000000	 0.207540
					}
				}
			}
		}
	}
	JOINT Spine
	{
		OFFSET	 0.000184	-0.007763	 0.117403
		CHANNELS 3 Zrotation Xrotation Yrotation
		JOINT Spine1
		{
			OFFSET	 0.000000	 0.000000	 0.137269
			CHANNELS 3 Zrotation Xrotation Yrotation
			JOINT Spine2
			{
				OFFSET	 0.000000	 0.000000	 0.156879
				CHANNELS 3 Zrotation Xrotation Yrotation
				JOINT LeftShoulder
				{
					OFFSET	 0.080501	-0.002496	 0.160144
					CHANNELS 3 Zrotation Xrotation Yrotation
					JOINT LeftArm
					{
						OFFSET	 0.000000	 0.000000	 0.164363
						CHANNELS 3 Zrotation Xrotation Yrotation
						JOINT LeftForeArm
						{
							OFFSET	 0.000000	 0.000000	 0.364576
							CHANNELS 3 Zrotation Xrotation Yrotation
							JOINT LeftHand
							{
								OFFSET	 0.000000	 0.000000	 0.360812
								CHANNELS 3 Zrotation Xrotation Yrotation
								JOINT LeftHandIndex1
								{
									OFFSET	 0.000000	 0.000000	 0.086006
									CHANNELS 3 Zrotation Xrotation Yrotation
									JOINT LeftHandIndex2
									{
										OFFSET	 0.000000	 0.000000	 0.047236
										CHANNELS 3 Zrotation Xrotation Yrotation
										JOINT LeftHandIndex3
										{
											OFFSET	-0.004284	-0.000551	 0.038166
											CHANNELS 3 Zrotation Xrotation Yrotation
											End Site
											{
												OFFSET	-0.004284	-0.000551	 0.038166
											}
										}
									}
								}
							}
						}
					}
				}
				JOINT Neck
				{
					OFFSET	 0.000000	 0.000000	 0.176489
					CHANNELS 3 Zrotation Xrotation Yrotation
					JOINT Head
					{
						OFFSET	 0.000000	-0.001747	 0.077940
						CHANNELS 3 Zrotation Xrotation Yrotation
						End Site
						{
							OFFSET	 0.000000	-0.001747	 0.077940
						}
					}
				}
				JOINT RightShoulder
				{
					OFFSET	-0.080363	 0.000306	 0.159706
					CHANNELS 3 Zrotation Xrotation Yrotation
					JOINT RightArm
					{
						OFFSET	 0.000000	 0.000000	 0.164196
						CHANNELS 3 Zrotation Xrotation Yrotation
						JOINT RightForeArm
						{
							OFFSET	 0.000000	 0.000000	 0.365611
							CHANNELS 3 Zrotation Xrotation Yrotation
							JOINT RightHand
							{
								OFFSET	 0.000000	 0.000000	 0.360648
								CHANNELS 3 Zrotation Xrotation Yrotation
								JOINT RightHandIndex1
								{
									OFFSET	 0.000000	 0.000000	 0.069977
									CHANNELS 3 Zrotation Xrotation Yrotation
									JOINT RightHandIndex2
									{
										OFFSET	 0.000000	 0.000000	 0.052305
										CHANNELS 3 Zrotation Xrotation Yrotation
										JOINT RightHandIndex3
										{
											OFFSET	 0.009002	-0.000782	 0.042196
											CHANNELS 3 Zrotation Xrotation Yrotation
											End Site
											{
												OFFSET	 0.009002	-0.000782	 0.042196
											}
										}
									}
								}
							}
						}
					}
				}
			}
		}
	}
}
MOTION
Frames:    4
Frame Time: 0.03333334
-0.000640	 0.019976	 1.267532	 0.002882	-0.001719	-0.185450	 4.972690	-3.047122	 177.196300	 1.445589	-13.991230	-0.821311	-9.350901	 71.754530	 3.461932	-2.385833	 28.452760	 0.000004	-5.031554	-3.811135	-176.896400	-1.417214	-15.018540	 0.868117	 9.301597	 72.154990	-3.532067	 2.384658	 28.388730	 0.000004	 3.342515	 2.844774	-0.120637	 2.170987	 3.327099	 0.874933	-6.538897	-4.045370	-1.393015	-91.776180	 78.527490	 180.000000	 57.921220	 39.478400	-60.181560	-8.553512	 0.191697	-0.616136	-29.330730	 1.180773	-4.349724	-2.635965	 4.993658	 6.788941	-5.165319	 0.784187	 3.516649	-5.225038	 0.466231	 0.424329	-0.000002	-3.783157	-0.089647	-6.376196	 4.828360	 0.269085	 89.782100	 78.203870	 180.000000	-62.010500	 41.056720	 54.903990	 8.225484	 3.129819	 7.172466	 28.632180	 0.291191	 8.889372	 6.112037	 4.509576	-0.364401	 4.968462	 1.518543	-9.347576	 5.168945	 0.703820	 2.021906
-0.000635	 0.020101	 1.265668	 0.003027	-0.001993	-0.182801	 5.163274	-3.797938	 177.233400	 1.421866	-15.505710	-0.914491	-9.898294	 72.497280	 4.038189	-2.385833	 28.452760	 0.000004	-5.221497	-4.513060	-176.934200	-1.393882	-16.430720	 0.954201	 9.816961	 72.847760	-4.073526	 2.384658	 28.388730	 0.000004	 2.855386	 2.885795	-0.126246	 2.159932	 3.183981	 0.879203	-6.507504	-3.863841	-1.373514	-91.776250	 78.527450	-180.000000	 57.803690	 39.424880	-60.110470	-8.750070	 0.195720	-0.694854	-29.353200	 1.199889	-4.349248	-2.635965	 4.993658	 6.788941	-5.165319	 0.784187	 3.516649	-5.225038	 0.466231	 0.424329	-0.000002	-3.783157	-0.089647	-6.353838	 4.918005	 0.273124	 89.782120	 78.203890	 180.000000	-61.771130	 40.943820	 55.296020	 8.322812	 2.978290	 6.879307	 28.604150	 0.257763	 8.853359	 6.112037	 4.509576	-0.364401	 4.968462	 1.518543	-9.347576	 5.168945	 0.703820	 2.021906
-0.000624	 0.020348	 1.262000	 0.003322	-0.002379	-0.176448	 5.548256	-5.102821	 177.289800	 1.374161	-18.130180	-1.079327	-10.969320	 73.776710	 5.159667	-2.385833	 28.452760	 0.000004	-5.605123	-5.749765	-176.996900	-1.347004	-18.911940	 1.108595	 10.833880	 74.058230	-5.136703	 2.384658	 28.388730	 0.000004	 1.859056	 2.965958	-0.136061	 2.127098	 2.903358	 0.882707	-6.411736	-3.510267	-1.328684	-91.776210	 78.527430	-180.000000	 57.570720	 39.315530	-59.966510	-9.143476	 0.202038	-0.844387	-29.398270	 1.238226	-4.348220	-2.635965	 4.993658	 6.788941	-5.165319	 0.784187	 3.516649	-5.225038	 0.466231	 0.424329	-0.000002	-3.783157	-0.089647	-6.275924	 5.097760	 0.279641	 89.782170	 78.203900	 179.999900	-61.323420	 40.687560	 56.438400	 8.497787	 2.477574	 5.867660	 28.594800	 0.148451	 8.758760	 6.112037	 4.509576	-0.364401	 4.968462	 1.518543	-9.347576	 5.168945	 0.703820	 2.021906
-0.000618	 0.020565	 1.258819	 0.003821	-0.001682	-0.168877	 5.890625	-6.106816	 177.325000	 1.331675	-20.140110	-1.208918	-11.914550	 74.748930	 6.144237	-2.385833	 28.452760	 0.000004	-5.946805	-6.711653	-177.043300	-1.305267	-20.833850	 1.231348	 11.737760	 74.989070	-6.076505	 2.384658	 28.388730	 0.000004	 0.948347	 3.033836	-0.143860	 2.086409	 2.661431	 0.880603	-6.291643	-3.207974	-1.283311	-91.776230	 78.527470	-180.000000	 57.359990	 39.221670	-59.825420	-9.493883	 0.210677	-0.980863	-29.438580	 1.272484	-4.347262	-2.635965	 4.993658	 6.788941	-5.165319	 0.784187	 3.516649	-5.225038	 0.466231	 0.424329	-0.000002	-3.783157	-0.089647	-6.171221	 5.256969	 0.283566	 89.782170	 78.203870	 179.999900	-60.949690	 40.331470	 57.688050	 8.548932	 1.946407	 4.808270	 28.710700	-0.065677	 8.612256	 6.112037	 4.509576	-0.364401	 4.968462	 1.518543	-9.347576	 5.168945	 0.703820	 2.021906
